<mxfile host="app.diagrams.net" modified="2023-12-12T16:47:08.463Z" agent="Mozilla/5.0 (Windows NT 10.0; Win64; x64) AppleWebKit/537.36 (KHTML, like Gecko) Chrome/120.0.0.0 Safari/537.36 Edg/120.0.0.0" etag="jrsYDJylbfYWGJNHdJrA" version="22.1.7" type="github">
  <diagram name="Page-1" id="8fGttMPrjWgMjmKSddIA">
    <mxGraphModel dx="872" dy="447" grid="1" gridSize="10" guides="1" tooltips="1" connect="1" arrows="1" fold="1" page="1" pageScale="1" pageWidth="850" pageHeight="1100" math="0" shadow="0">
      <root>
        <mxCell id="0" />
        <mxCell id="1" parent="0" />
        <mxCell id="LtGxz1K_oWPWRsLhhjqw-1" value="" style="ellipse;html=1;shape=startState;fillColor=#000000;strokeColor=#ff0000;" vertex="1" parent="1">
          <mxGeometry x="410" y="190" width="30" height="30" as="geometry" />
        </mxCell>
        <mxCell id="LtGxz1K_oWPWRsLhhjqw-2" value="" style="edgeStyle=orthogonalEdgeStyle;html=1;verticalAlign=bottom;endArrow=open;endSize=8;strokeColor=#ff0000;rounded=0;" edge="1" source="LtGxz1K_oWPWRsLhhjqw-1" parent="1">
          <mxGeometry relative="1" as="geometry">
            <mxPoint x="425" y="280" as="targetPoint" />
          </mxGeometry>
        </mxCell>
        <mxCell id="LtGxz1K_oWPWRsLhhjqw-8" value="" style="edgeStyle=orthogonalEdgeStyle;rounded=0;orthogonalLoop=1;jettySize=auto;html=1;" edge="1" parent="1" source="LtGxz1K_oWPWRsLhhjqw-3" target="LtGxz1K_oWPWRsLhhjqw-5">
          <mxGeometry relative="1" as="geometry" />
        </mxCell>
        <mxCell id="LtGxz1K_oWPWRsLhhjqw-3" value="pilih menu" style="rounded=1;whiteSpace=wrap;html=1;arcSize=40;fontColor=#000000;fillColor=#ffffc0;strokeColor=#ff0000;" vertex="1" parent="1">
          <mxGeometry x="365" y="260" width="120" height="40" as="geometry" />
        </mxCell>
        <mxCell id="LtGxz1K_oWPWRsLhhjqw-5" value="" style="shape=line;html=1;strokeWidth=6;strokeColor=#ff0000;" vertex="1" parent="1">
          <mxGeometry x="325" y="345" width="200" height="10" as="geometry" />
        </mxCell>
        <mxCell id="LtGxz1K_oWPWRsLhhjqw-9" value="" style="endArrow=classic;html=1;rounded=0;fillColor=#f8cecc;strokeColor=#b85450;entryX=0.5;entryY=0;entryDx=0;entryDy=0;" edge="1" parent="1" target="LtGxz1K_oWPWRsLhhjqw-10">
          <mxGeometry width="50" height="50" relative="1" as="geometry">
            <mxPoint x="365" y="355" as="sourcePoint" />
            <mxPoint x="320" y="450" as="targetPoint" />
          </mxGeometry>
        </mxCell>
        <mxCell id="LtGxz1K_oWPWRsLhhjqw-10" value="Entry Form" style="rounded=1;whiteSpace=wrap;html=1;arcSize=40;fontColor=#000000;fillColor=#ffffc0;strokeColor=#ff0000;" vertex="1" parent="1">
          <mxGeometry x="100" y="510" width="120" height="40" as="geometry" />
        </mxCell>
        <mxCell id="LtGxz1K_oWPWRsLhhjqw-11" value="" style="edgeStyle=orthogonalEdgeStyle;html=1;verticalAlign=bottom;endArrow=open;endSize=8;strokeColor=#ff0000;rounded=0;" edge="1" source="LtGxz1K_oWPWRsLhhjqw-10" parent="1">
          <mxGeometry relative="1" as="geometry">
            <mxPoint x="160" y="600" as="targetPoint" />
          </mxGeometry>
        </mxCell>
        <mxCell id="LtGxz1K_oWPWRsLhhjqw-12" value="" style="endArrow=classic;html=1;rounded=0;fillColor=#f8cecc;strokeColor=#b85450;entryX=0.5;entryY=0;entryDx=0;entryDy=0;exitX=0.52;exitY=0.9;exitDx=0;exitDy=0;exitPerimeter=0;" edge="1" parent="1" target="LtGxz1K_oWPWRsLhhjqw-13" source="LtGxz1K_oWPWRsLhhjqw-5">
          <mxGeometry width="50" height="50" relative="1" as="geometry">
            <mxPoint x="510" y="355" as="sourcePoint" />
            <mxPoint x="465" y="450" as="targetPoint" />
          </mxGeometry>
        </mxCell>
        <mxCell id="LtGxz1K_oWPWRsLhhjqw-13" value="Cek Antrian" style="rounded=1;whiteSpace=wrap;html=1;arcSize=40;fontColor=#000000;fillColor=#ffffc0;strokeColor=#ff0000;" vertex="1" parent="1">
          <mxGeometry x="245" y="510" width="120" height="40" as="geometry" />
        </mxCell>
        <mxCell id="LtGxz1K_oWPWRsLhhjqw-15" value="" style="endArrow=classic;html=1;rounded=0;fillColor=#f8cecc;strokeColor=#b85450;entryX=0.5;entryY=0;entryDx=0;entryDy=0;exitX=0.705;exitY=0.9;exitDx=0;exitDy=0;exitPerimeter=0;" edge="1" parent="1" target="LtGxz1K_oWPWRsLhhjqw-16" source="LtGxz1K_oWPWRsLhhjqw-5">
          <mxGeometry width="50" height="50" relative="1" as="geometry">
            <mxPoint x="564" y="364" as="sourcePoint" />
            <mxPoint x="600" y="460" as="targetPoint" />
          </mxGeometry>
        </mxCell>
        <mxCell id="LtGxz1K_oWPWRsLhhjqw-16" value="Cek Data Diagnostic" style="rounded=1;whiteSpace=wrap;html=1;arcSize=40;fontColor=#000000;fillColor=#ffffc0;strokeColor=#ff0000;" vertex="1" parent="1">
          <mxGeometry x="390" y="510" width="120" height="40" as="geometry" />
        </mxCell>
        <mxCell id="LtGxz1K_oWPWRsLhhjqw-18" value="" style="endArrow=classic;html=1;rounded=0;fillColor=#f8cecc;strokeColor=#b85450;entryX=0.5;entryY=0;entryDx=0;entryDy=0;exitX=0.885;exitY=0.8;exitDx=0;exitDy=0;exitPerimeter=0;" edge="1" parent="1" target="LtGxz1K_oWPWRsLhhjqw-19" source="LtGxz1K_oWPWRsLhhjqw-5">
          <mxGeometry width="50" height="50" relative="1" as="geometry">
            <mxPoint x="616" y="355" as="sourcePoint" />
            <mxPoint x="750" y="461" as="targetPoint" />
          </mxGeometry>
        </mxCell>
        <mxCell id="LtGxz1K_oWPWRsLhhjqw-19" value="Cek Ketersediaan Konselor" style="rounded=1;whiteSpace=wrap;html=1;arcSize=40;fontColor=#000000;fillColor=#ffffc0;strokeColor=#ff0000;" vertex="1" parent="1">
          <mxGeometry x="540" y="511" width="120" height="40" as="geometry" />
        </mxCell>
      </root>
    </mxGraphModel>
  </diagram>
</mxfile>
